<svg width="118" height="118" viewBox="0 0 118 118" fill="none" xmlns="http://www.w3.org/2000/svg">
<path d="M32.1958 83.9395V84.4951H47.1326V83.9395C42.3733 83.9395 42.039 80.016 42.039 69.1157V57.3305C42.039 54.7296 43.0371 52.463 45.9133 52.463C49.8417 52.463 52.6639 57.3305 59.4145 57.3305C63.7805 57.3305 66.4945 54.5083 66.4945 51.2486H65.9389C65.9389 53.1808 63.9476 54.4002 61.8482 54.4002C56.9758 54.4002 53.9373 50.9683 48.4601 50.9683C45.1414 50.9683 42.7027 52.7383 42.039 54.233V29.7283H51.1692C63.8936 29.7283 71.1948 32.7127 71.1948 36.4199V36.6412H71.7504V29.1727H32.1958V29.7283C36.9502 29.7283 37.2846 33.6518 37.2846 44.5521V69.1157C37.2846 80.016 36.9502 83.9395 32.1958 83.9395Z" fill="white"/>
<path d="M76.7264 80.7879C76.7264 82.8333 78.3883 84.4951 80.4336 84.4951C82.4789 84.4951 84.1408 82.8333 84.1408 80.7879C84.1408 78.7426 82.4789 77.0808 80.4336 77.0808C78.3883 77.0808 76.7264 78.7426 76.7264 80.7879Z" fill="white"/>
<path d="M5.68054 38.7322L5.99275 37.9357L11.4711 36.4386L7.22806 34.7792L7.54027 33.979L13.1821 36.1866L12.8699 36.9856L7.38417 38.4802L11.6346 40.1433L11.3224 40.9398L5.68054 38.7322Z" fill="white"/>
<path d="M12.8469 24.6921L13.3841 23.9349L19.6073 25.6348L19.0665 26.3957L17.4465 25.9532L16.0944 27.8584L17.0482 29.2387L16.5037 30.0057L12.8469 24.6921ZM16.65 25.6926L14.0589 24.9834L15.588 27.1885L16.65 25.6926Z" fill="white"/>
<path d="M20.3138 16.0258L20.9394 15.4431L25.0682 19.8767L24.4426 20.4594L20.3138 16.0258Z" fill="white"/>
<path d="M27.8752 9.9885L28.6028 9.53862L31.3414 13.9624L33.9387 12.3546L34.3885 13.0811L31.0649 15.1387L27.8752 9.9885Z" fill="white"/>
<path d="M42.6409 9.54263C42.2525 9.67292 41.8592 9.72701 41.4609 9.70365C41.0615 9.6803 40.6632 9.5623 40.2662 9.35088L40.5981 8.65763C40.8857 8.7953 41.1782 8.87888 41.4782 8.90715C41.7781 8.93542 42.0829 8.89732 42.3951 8.79284C42.7467 8.67484 43.0035 8.49784 43.1658 8.26307C43.3268 8.02707 43.36 7.76894 43.2629 7.48992C43.1941 7.28834 43.0773 7.14207 42.9126 7.05111C42.7479 6.96015 42.5635 6.90607 42.357 6.89132C42.1517 6.87534 41.8776 6.87165 41.5347 6.8778C41.1168 6.88763 40.7677 6.87534 40.4887 6.84338C40.2097 6.81019 39.9491 6.71555 39.7082 6.55698C39.466 6.39842 39.2865 6.15013 39.1698 5.80965C39.0702 5.52203 39.0567 5.23932 39.128 4.96153C39.1993 4.68374 39.3542 4.43176 39.5938 4.20436C39.8323 3.97696 40.1433 3.79751 40.5255 3.66599C40.8709 3.54799 41.2409 3.50374 41.6379 3.53569C42.0362 3.56642 42.4062 3.69917 42.7491 3.93149L42.3324 4.58049C42.1247 4.4379 41.8838 4.35186 41.6084 4.3199C41.3331 4.28917 41.0688 4.31499 40.8156 4.39611C40.5932 4.47232 40.4088 4.57188 40.2625 4.69357C40.115 4.81649 40.0154 4.95046 39.9614 5.09551C39.9085 5.24178 39.906 5.38682 39.9552 5.53063C40.0154 5.70517 40.1212 5.83055 40.2711 5.90676C40.4223 5.98173 40.5932 6.02721 40.7849 6.04074C40.9779 6.05549 41.236 6.05794 41.5605 6.04811C42.0005 6.03705 42.3644 6.04811 42.6508 6.0813C42.9372 6.11449 43.2088 6.21282 43.4645 6.37753C43.7201 6.54346 43.9107 6.80896 44.0373 7.17526C44.1553 7.51696 44.1737 7.84515 44.095 8.15736C44.0152 8.4708 43.8492 8.74736 43.5972 8.98705C43.3453 9.22796 43.0257 9.41357 42.6409 9.54263Z" fill="white"/>
<path d="M62.1823 6.94468C61.773 6.91518 61.3895 6.81193 61.0318 6.63616C60.6729 6.45916 60.3508 6.19734 60.0669 5.84826L60.6409 5.33816C60.8523 5.57661 61.0908 5.76591 61.3563 5.90849C61.6206 6.05107 61.918 6.13343 62.2462 6.15801C62.615 6.18505 62.921 6.12113 63.1607 5.96626C63.4016 5.81261 63.5307 5.58645 63.5504 5.29145C63.5639 5.0788 63.5135 4.89934 63.3967 4.75184C63.2799 4.60434 63.13 4.48266 62.9468 4.38924C62.7625 4.29582 62.5117 4.1852 62.1921 4.05859C61.8037 3.90618 61.4866 3.75991 61.242 3.62224C60.9974 3.48457 60.7946 3.29528 60.6323 3.05559C60.4701 2.81713 60.4012 2.51722 60.4246 2.15953C60.4455 1.8547 60.5414 1.5892 60.7147 1.36057C60.888 1.13195 61.1289 0.959864 61.4374 0.843093C61.7447 0.726322 62.1012 0.680843 62.5043 0.706655C62.8682 0.731239 63.2271 0.834489 63.5811 1.01641C63.9351 1.19955 64.2252 1.46505 64.4526 1.81168L63.8171 2.24803C63.6806 2.03784 63.4914 1.86453 63.2504 1.72932C63.0083 1.59411 62.7551 1.51545 62.4896 1.49209C62.2548 1.47611 62.0471 1.49701 61.8639 1.55232C61.682 1.60886 61.537 1.69368 61.4313 1.80676C61.3256 1.92107 61.2678 2.05382 61.258 2.20501C61.2457 2.39061 61.2948 2.54672 61.4042 2.67455C61.5136 2.80238 61.6537 2.90932 61.8258 2.99782C61.9967 3.08509 62.2339 3.18711 62.5375 3.30388C62.9481 3.46368 63.2787 3.61486 63.5307 3.75622C63.7814 3.89757 63.9941 4.09301 64.1649 4.34499C64.337 4.59574 64.4108 4.91409 64.385 5.30128C64.3616 5.66266 64.2522 5.97241 64.058 6.2293C63.8638 6.48743 63.6044 6.67795 63.2787 6.80209C62.953 6.92624 62.5879 6.97418 62.1823 6.94468Z" fill="white"/>
<path d="M74.2624 3.69454L72.485 3.16477L72.721 2.37318L77.087 3.6761L76.851 4.46768L75.0823 3.93914L73.5864 8.95291L72.7678 8.70954L74.2624 3.69454Z" fill="white"/>
<path d="M83.7881 13.4945C83.4046 13.2732 83.1084 12.9893 82.8994 12.6427C82.6904 12.296 82.5872 11.9138 82.5896 11.4971C82.5921 11.0804 82.7126 10.6625 82.9535 10.2458L84.8243 6.99463L85.5655 7.42115L83.6959 10.6686C83.5312 10.9538 83.4476 11.2291 83.4427 11.4946C83.439 11.7601 83.5029 11.9986 83.6344 12.2112C83.766 12.4226 83.954 12.5984 84.1986 12.7398C84.4432 12.8799 84.694 12.9561 84.9484 12.9672C85.2041 12.9782 85.4475 12.9168 85.6798 12.7828C85.9121 12.6476 86.11 12.4374 86.2747 12.1522L88.1442 8.90475L88.8879 9.33373L87.0171 12.5849C86.7774 13.0016 86.4763 13.3162 86.1161 13.5264C85.7547 13.7366 85.3725 13.8386 84.9656 13.8313C84.56 13.8251 84.1679 13.712 83.7881 13.4945Z" fill="white"/>
<path d="M96.0535 14.7077L97.3957 15.9996C97.837 16.4236 98.1381 16.9005 98.3028 17.4303C98.4663 17.9613 98.486 18.4862 98.3618 19.0061C98.2377 19.5248 97.982 19.987 97.5948 20.3889C97.204 20.7958 96.7516 21.0748 96.2403 21.2247C95.729 21.3759 95.2066 21.3796 94.6743 21.2358C94.1433 21.0932 93.6492 20.8019 93.1957 20.3656L91.8522 19.0737L96.0535 14.7077ZM93.7795 19.7583C94.1163 20.0828 94.4777 20.2943 94.8624 20.3951C95.2484 20.4946 95.6245 20.4885 95.9908 20.3742C96.3571 20.2611 96.6816 20.057 96.963 19.7645C97.2359 19.4818 97.4178 19.1548 97.5113 18.7824C97.6034 18.4112 97.5924 18.0338 97.4756 17.6491C97.3601 17.2644 97.14 16.9165 96.8143 16.6043L96.0854 15.9074L93.0531 19.059L93.7795 19.7583Z" fill="white"/>
<path d="M105.066 24.9444L105.545 25.6511L100.531 29.0522L100.052 28.3442L105.066 24.9444Z" fill="white"/>
<path d="M105.286 38.3348C105.077 37.8087 105.015 37.2716 105.099 36.7234C105.183 36.1764 105.397 35.6847 105.74 35.2471C106.083 34.8108 106.517 34.4875 107.04 34.2798C107.563 34.072 108.096 34.0094 108.643 34.0917C109.19 34.1753 109.682 34.3867 110.117 34.7272C110.553 35.0677 110.875 35.5003 111.084 36.0264C111.294 36.5525 111.357 37.0872 111.272 37.6329C111.189 38.1775 110.977 38.6679 110.637 39.1043C110.296 39.5406 109.866 39.8626 109.344 40.0704C108.82 40.2793 108.283 40.342 107.733 40.2597C107.184 40.1773 106.691 39.9671 106.255 39.6291C105.818 39.2911 105.495 38.8596 105.286 38.3348ZM106.1 38.0115C106.25 38.3864 106.481 38.6962 106.793 38.9408C107.107 39.1854 107.461 39.3378 107.856 39.3956C108.252 39.4546 108.642 39.4079 109.024 39.2554C109.401 39.1055 109.712 38.8744 109.956 38.561C110.199 38.2488 110.35 37.896 110.411 37.5026C110.47 37.1093 110.425 36.7246 110.275 36.3485C110.125 35.9723 109.893 35.6614 109.58 35.4143C109.266 35.1685 108.913 35.0148 108.52 34.9546C108.128 34.8931 107.743 34.9374 107.366 35.0873C106.984 35.2398 106.669 35.4733 106.422 35.7892C106.175 36.1051 106.022 36.4591 105.963 36.8536C105.904 37.2482 105.95 37.6342 106.1 38.0115Z" fill="white"/>
<path d="M112.319 79.2627L112.007 80.0592L106.529 81.5564L110.772 83.2157L110.459 84.0159L104.818 81.8083L105.13 81.0094L110.616 79.5147L106.365 77.8516L106.677 77.0551L112.319 79.2627Z" fill="white"/>
<path d="M105.153 93.3029L104.616 94.0601L98.3924 92.3601L98.9332 91.5993L100.553 92.0418L101.905 90.1366L100.952 88.7562L101.496 87.9892L105.153 93.3029ZM101.35 92.3024L103.941 93.0116L102.412 90.8065L101.35 92.3024Z" fill="white"/>
<path d="M97.6859 101.969L97.0602 102.552L92.9315 98.1182L93.5571 97.5356L97.6859 101.969Z" fill="white"/>
<path d="M90.1245 108.006L89.3968 108.456L86.6582 104.033L84.061 105.64L83.6111 104.914L86.9348 102.856L90.1245 108.006Z" fill="white"/>
<path d="M75.3587 108.452C75.7472 108.322 76.1405 108.268 76.5387 108.291C76.9382 108.315 77.3365 108.433 77.7335 108.644L77.4016 109.337C77.114 109.2 76.8214 109.116 76.5215 109.088C76.2216 109.06 75.9168 109.098 75.6046 109.202C75.253 109.32 74.9961 109.497 74.8339 109.732C74.6729 109.968 74.6397 110.226 74.7368 110.505C74.8056 110.707 74.9224 110.853 75.0871 110.944C75.2518 111.035 75.4362 111.089 75.6427 111.104C75.8479 111.12 76.122 111.123 76.465 111.117C76.8829 111.107 77.232 111.12 77.511 111.152C77.79 111.185 78.0506 111.279 78.2915 111.438C78.5337 111.597 78.7131 111.845 78.8299 112.185C78.9295 112.473 78.943 112.756 78.8717 113.033C78.8004 113.311 78.6455 113.563 78.4058 113.791C78.1674 114.018 77.8564 114.197 77.4741 114.329C77.1287 114.447 76.7588 114.491 76.3617 114.459C75.9635 114.429 75.5935 114.296 75.2506 114.063L75.6673 113.414C75.875 113.557 76.1159 113.643 76.3912 113.675C76.6666 113.706 76.9308 113.68 77.184 113.599C77.4065 113.523 77.5909 113.423 77.7372 113.301C77.8847 113.178 77.9842 113.044 78.0383 112.899C78.0912 112.753 78.0936 112.608 78.0445 112.464C77.9842 112.29 77.8785 112.164 77.7286 112.088C77.5774 112.013 77.4065 111.968 77.2148 111.954C77.0218 111.939 76.7637 111.937 76.4392 111.947C75.9991 111.958 75.6353 111.947 75.3489 111.914C75.0625 111.88 74.7909 111.782 74.5352 111.617C74.2795 111.451 74.089 111.186 73.9624 110.82C73.8444 110.478 73.826 110.15 73.9046 109.838C73.9845 109.524 74.1505 109.248 74.4024 109.008C74.6544 108.767 74.974 108.581 75.3587 108.452Z" fill="white"/>
<path d="M55.8174 111.05C56.2267 111.08 56.6102 111.183 56.9679 111.359C57.3268 111.536 57.6488 111.798 57.9328 112.147L57.3588 112.657C57.1473 112.418 56.9089 112.229 56.6434 112.086C56.3791 111.944 56.0817 111.862 55.7535 111.837C55.3847 111.81 55.0787 111.874 54.839 112.029C54.5981 112.182 54.469 112.409 54.4493 112.704C54.4358 112.916 54.4862 113.096 54.603 113.243C54.7197 113.391 54.8697 113.512 55.0528 113.606C55.2372 113.699 55.488 113.81 55.8076 113.936C56.196 114.089 56.5131 114.235 56.7577 114.373C57.0023 114.51 57.2051 114.7 57.3674 114.939C57.5296 115.178 57.5985 115.478 57.5751 115.835C57.5542 116.14 57.4583 116.406 57.285 116.634C57.1117 116.863 56.8708 117.035 56.5623 117.152C56.255 117.269 55.8985 117.314 55.4953 117.288C55.1315 117.264 54.7726 117.16 54.4186 116.979C54.0646 116.795 53.7745 116.53 53.5471 116.183L54.1826 115.747C54.319 115.957 54.5083 116.13 54.7492 116.266C54.9914 116.401 55.2446 116.48 55.5101 116.503C55.7449 116.519 55.9526 116.498 56.1357 116.443C56.3177 116.386 56.4627 116.301 56.5684 116.188C56.6741 116.074 56.7319 115.941 56.7417 115.79C56.754 115.604 56.7048 115.448 56.5955 115.32C56.4861 115.193 56.3459 115.086 56.1738 114.997C56.003 114.91 55.7658 114.808 55.4622 114.691C55.0516 114.531 54.721 114.38 54.469 114.239C54.2182 114.097 54.0056 113.902 53.8347 113.65C53.6627 113.399 53.5889 113.081 53.6147 112.694C53.6381 112.332 53.7475 112.023 53.9417 111.766C54.1359 111.508 54.3952 111.317 54.721 111.193C55.0467 111.069 55.4118 111.021 55.8174 111.05Z" fill="white"/>
<path d="M43.7373 114.3L45.5147 114.83L45.2787 115.622L40.9127 114.319L41.1487 113.527L42.9174 114.056L44.4133 109.042L45.232 109.285L43.7373 114.3Z" fill="white"/>
<path d="M34.2116 104.5C34.5951 104.722 34.8913 105.006 35.1003 105.352C35.3092 105.699 35.4125 106.081 35.41 106.498C35.4075 106.915 35.2871 107.332 35.0462 107.749L33.1754 111L32.4342 110.574L34.3038 107.326C34.4685 107.041 34.552 106.766 34.557 106.5C34.5607 106.235 34.4967 105.996 34.3652 105.784C34.2337 105.572 34.0456 105.397 33.801 105.255C33.5564 105.115 33.3057 105.039 33.0512 105.028C32.7956 105.017 32.5522 105.078 32.3199 105.212C32.0876 105.347 31.8897 105.558 31.725 105.843L29.8554 109.09L29.1118 108.661L30.9825 105.41C31.2222 104.993 31.5234 104.679 31.8835 104.469C32.2449 104.258 32.6272 104.156 33.034 104.164C33.4397 104.17 33.8318 104.283 34.2116 104.5Z" fill="white"/>
<path d="M21.9462 103.287L20.604 101.995C20.1627 101.571 19.8616 101.094 19.6969 100.565C19.5334 100.034 19.5137 99.5088 19.6379 98.9888C19.762 98.4701 20.0177 98.008 20.4049 97.606C20.7957 97.1992 21.2481 96.9202 21.7594 96.7702C22.2707 96.619 22.7931 96.6153 23.3254 96.7591C23.8564 96.9017 24.3505 97.193 24.8041 97.6294L26.1475 98.9212L21.9462 103.287ZM24.2202 98.2366C23.8834 97.9121 23.522 97.7007 23.1373 97.5999C22.7514 97.5003 22.3752 97.5065 22.0089 97.6208C21.6426 97.7339 21.3181 97.9379 21.0367 98.2304C20.7638 98.5132 20.5819 98.8401 20.4885 99.2125C20.3963 99.5838 20.4073 99.9611 20.5241 100.346C20.6396 100.731 20.8597 101.078 21.1854 101.391L21.9143 102.088L24.9466 98.936L24.2202 98.2366Z" fill="white"/>
<path d="M12.9338 93.0506L12.4544 92.3438L17.4682 88.9427L17.9476 89.6507L12.9338 93.0506Z" fill="white"/>
<path d="M12.7135 79.6601C12.9225 80.1862 12.9852 80.7234 12.9004 81.2716C12.8168 81.8186 12.6029 82.3102 12.26 82.7478C11.917 83.1842 11.4831 83.5074 10.9595 83.7152C10.4371 83.9229 9.90366 83.9856 9.35668 83.9032C8.8097 83.8196 8.31804 83.6082 7.88291 83.2677C7.44656 82.9273 7.12451 82.4946 6.91556 81.9685C6.70537 81.4424 6.64268 80.9077 6.72749 80.362C6.81108 79.8175 7.02249 79.327 7.36297 78.8907C7.70345 78.4543 8.13366 78.1323 8.65606 77.9246C9.17968 77.7156 9.71683 77.6529 10.2663 77.7353C10.8157 77.8176 11.3086 78.0278 11.745 78.3658C12.1813 78.7039 12.5046 79.1353 12.7135 79.6601ZM11.8998 79.9834C11.7499 79.6085 11.5188 79.2988 11.2066 79.0542C10.8931 78.8096 10.5391 78.6571 10.1433 78.5994C9.74756 78.5404 9.35791 78.5871 8.97564 78.7395C8.59829 78.8895 8.28731 79.1205 8.04393 79.434C7.80056 79.7462 7.64937 80.099 7.58914 80.4923C7.53014 80.8856 7.57439 81.2704 7.72435 81.6465C7.87431 82.0226 8.10662 82.3336 8.42006 82.5806C8.73349 82.8265 9.08626 82.9801 9.4796 83.0404C9.8717 83.1018 10.2564 83.0576 10.6338 82.9076C11.0161 82.7552 11.3307 82.5216 11.5778 82.2057C11.8248 81.8899 11.9773 81.5359 12.0363 81.1413C12.0953 80.7467 12.0498 80.3608 11.8998 79.9834Z" fill="white"/>
</svg>
